# xmcd CD database file
#
# Track frame offsets:
#	150
#	22579
#	45492
#	56810
#	75821
#	94958
#	120090
#	141384
#	165608
#
# Disc length: 2447 seconds
#
# Revision: 1
# Processed by: cddbd v1.5.2PL0 Copyright (c) Steve Scherf et al.
# Submitted via: jetAudio 7
#
DISCID=60098d09
DTITLE=周杰伦 - 超时代Live
DYEAR=2011
DGENRE=Pop
TTITLE0=15.免费教学录影带
TTITLE1=16..时光机
TTITLE2=17.爸,我回来了
TTITLE3=18.雨下一整晚+心事谁人知
TTITLE4=19.爱的飞行日记
TTITLE5=20.以父之名
TTITLE6=21.开不了口
TTITLE7=22.东风破
TTITLE8=23.双截棍
EXTD=
EXTT0=
EXTT1=
EXTT2=
EXTT3=
EXTT4=
EXTT5=
EXTT6=
EXTT7=
EXTT8=
PLAYORDER=
